<?xml version="1.0" encoding="UTF-8"?>
<svg viewBox="0 0 28 28" xmlns="http://www.w3.org/2000/svg" width="100%" height="100%">
    <path d="M27.239 17.256a13.459 13.459 0 01-3.998 6.715c-.072.066-.145.075-.05-.078.365-.59.593-1.344.347-1.85-.426-.875-2.09-.789-4.437-.667-3.095.16-7.378.383-11.586-1.454C.242 16.745.692 8.674 4.732 4.395c.746-.79 1.857-1.562 2.834-2.162.002 0 .004-.002.005-.003l.003-.002A13.566 13.566 0 0114.158.535c.54 0 1.071.032 1.594.092.085.01.087.132.002.143-1.566.194-5.62 1.059-7.494 4.812-1.506 3.018-.797 9.763 9.757 10.545 1.107.082 2.322.065 3.498.047 2.682-.04 5.165-.076 5.724 1.082z" fill="url(#sberLinear)"></path>
    <path d="M27.239 17.256a13.459 13.459 0 01-3.998 6.715c-.072.066-.145.075-.05-.078.365-.59.593-1.344.347-1.85-.426-.875-2.09-.789-4.437-.667-3.095.16-7.378.383-11.586-1.454C.242 16.745.692 8.674 4.732 4.395c.746-.79 1.857-1.562 2.834-2.162.002 0 .004-.002.005-.003l.003-.002A13.566 13.566 0 0114.158.535c.54 0 1.071.032 1.594.092.085.01.087.132.002.143-1.566.194-5.62 1.059-7.494 4.812-1.506 3.018-.797 9.763 9.757 10.545 1.107.082 2.322.065 3.498.047 2.682-.04 5.165-.076 5.724 1.082z" fill="url(#sberRadial)"></path>
    <path d="M27.324 11.158c-.558 1.012-1.524 1.85-2.865 2.37-3.606 1.394-9.18.165-11.676-3.01-2.496-3.177-.966-7.096 2.64-8.491 1.013-.392 2.13-.56 3.27-.53.29.01.605.075.87.193 1.177.522 2.346 1.197 3.397 2.135.012.01.003.03-.013.028-.847-.125-2.516-.032-3.104.182-1.723.626-2.335 2.091-1.364 3.273.97 1.181 4.097 1.7 5.82 1.073.701-.254 1.219-.647 1.52-1.105a13.375 13.375 0 011.505 3.882z" fill="url(#sberLinear)"></path>
    <path d="M27.324 11.158c-.558 1.012-1.524 1.85-2.865 2.37-3.606 1.394-9.18.165-11.676-3.01-2.496-3.177-.966-7.096 2.64-8.491 1.013-.392 2.13-.56 3.27-.53.29.01.605.075.87.193 1.177.522 2.346 1.197 3.397 2.135.012.01.003.03-.013.028-.847-.125-2.516-.032-3.104.182-1.723.626-2.335 2.091-1.364 3.273.97 1.181 4.097 1.7 5.82 1.073.701-.254 1.219-.647 1.52-1.105a13.375 13.375 0 011.505 3.882z" fill="url(#sberRadial)"></path>
    <path d="M14.18 27.5c1.981 0 3.863-.427 5.557-1.194.056-1.065-1.353-1.149-3.482-1.276-2.887-.172-7.1-.422-10.787-3.308-2.901-2.272-4.206-5.563-4.79-7.932-.002.068-.002.138-.002.207C.676 21.454 6.722 27.5 14.18 27.5z" fill="url(#sberLinear)"></path>
    <path d="M14.18 27.5c1.981 0 3.863-.427 5.557-1.194.056-1.065-1.353-1.149-3.482-1.276-2.887-.172-7.1-.422-10.787-3.308-2.901-2.272-4.206-5.563-4.79-7.932-.002.068-.002.138-.002.207C.676 21.454 6.722 27.5 14.18 27.5z" fill="url(#sberRadial)"></path>
    <defs>
        <radialGradient id="sberRadial" cx="0" cy="0" r="1" gradientUnits="userSpaceOnUse" gradientTransform="matrix(18.21095 -11.49612 12.98587 20.57086 7.97 21.682)">
            <stop stop-color="#f2e913" stop-opacity="0.85"></stop>
            <stop offset="1" stop-color="#a3cd39" stop-opacity="0.14"></stop>
        </radialGradient>
        <linearGradient id="sberLinear" x1="9.077" y1="1.255" x2="15.099" y2="27.037" gradientUnits="userSpaceOnUse">
            <stop stop-color="#0c8acb"></stop>
            <stop offset="1" stop-color="#21a038"></stop>
        </linearGradient>
    </defs>
</svg>
